<svg width="19.984375" height="13.739502" viewBox="0 0 19.9844 13.7395" fill="none" xmlns="http://www.w3.org/2000/svg" xmlns:xlink="http://www.w3.org/1999/xlink">
	<desc>
			Created with Pixso.
	</desc>
	<defs/>
	<g opacity="0.400000">
		<path d="M13.1143 6.86987C13.1143 7.698 12.7852 8.49243 12.2002 9.07788C11.6143 9.66357 10.8203 9.99268 9.99219 9.99268C9.16406 9.99268 8.36914 9.66357 7.78418 9.07788C7.19824 8.49243 6.86914 7.698 6.86914 6.86987C6.86914 6.04175 7.19824 5.24756 7.78418 4.66187C8.36914 4.07642 9.16406 3.74731 9.99219 3.74731C10.8203 3.74731 11.6143 4.07642 12.2002 4.66187C12.7852 5.24756 13.1143 6.04175 13.1143 6.86987Z" fill="#03014C" fill-opacity="1.000000" fill-rule="nonzero"/>
		<path d="M0 6.86987C0 6.86987 3.74707 0 9.99219 0C16.2373 0 19.9844 6.86987 19.9844 6.86987C19.9844 6.86987 16.2373 13.7395 9.99219 13.7395C3.74707 13.7395 0 6.86987 0 6.86987ZM9.99219 11.2415C11.1514 11.2415 12.2637 10.7808 13.084 9.96094C13.9033 9.14111 14.3643 8.0293 14.3643 6.86987C14.3643 5.71045 13.9033 4.59839 13.084 3.77856C12.2637 2.95874 11.1514 2.49805 9.99219 2.49805C8.83301 2.49805 7.7207 2.95874 6.90137 3.77856C6.08105 4.59839 5.62109 5.71045 5.62109 6.86987C5.62109 8.0293 6.08105 9.14111 6.90137 9.96094C7.7207 10.7808 8.83301 11.2415 9.99219 11.2415Z" fill="#03014C" fill-opacity="1.000000" fill-rule="evenodd"/>
	</g>
</svg>
