<svg width="13.323242" height="16.654053" viewBox="0 0 13.3232 16.6541" fill="none" xmlns="http://www.w3.org/2000/svg" xmlns:xlink="http://www.w3.org/1999/xlink">
	<desc>
			Created with Pixso.
	</desc>
	<defs/>
	<g opacity="0.500000">
		<path d="M6.66113 0C4.36621 0 2.49805 1.86768 2.49805 4.16357L2.49805 5.82886L1.66504 5.82886C0.74707 5.82886 0 6.57593 0 7.49438L0 14.9885C0 15.907 0.74707 16.6541 1.66504 16.6541L11.6582 16.6541C12.5762 16.6541 13.3232 15.907 13.3232 14.9885L13.3232 7.49438C13.3232 6.57593 12.5762 5.82886 11.6582 5.82886L10.8252 5.82886L10.8252 4.16357C10.8252 1.86768 8.95703 0 6.66113 0ZM4.16309 4.16357C4.16309 2.78613 5.28418 1.66528 6.66113 1.66528C8.03906 1.66528 9.16016 2.78613 9.16016 4.16357L9.16016 5.82886L4.16309 5.82886L4.16309 4.16357ZM11.6592 14.9885L7.49414 14.9885L7.49414 13.0918C7.99023 12.8027 8.32715 12.2715 8.32715 11.6577C8.32715 10.7393 7.58008 9.99243 6.66113 9.99243C5.74316 9.99243 4.99609 10.7393 4.99609 11.6577C4.99609 12.2708 5.33301 12.8027 5.8291 13.0918L5.8291 14.9885L1.66504 14.9885L1.66504 7.49438L11.6582 7.49438L11.6592 14.9885Z" fill="#03014C" fill-opacity="1.000000" fill-rule="nonzero"/>
	</g>
</svg>
