<svg width="14.988281" height="15.821289" viewBox="0 0 14.9883 15.8213" fill="none" xmlns="http://www.w3.org/2000/svg" xmlns:xlink="http://www.w3.org/1999/xlink">
	<desc>
			Created with Pixso.
	</desc>
	<defs/>
	<g opacity="0.500000">
		<path d="M7.49414 0C5.19824 0 3.33105 1.86768 3.33105 4.16357C3.33105 6.45923 5.19824 8.3269 7.49414 8.3269C9.79004 8.3269 11.6582 6.45923 11.6582 4.16357C11.6582 1.86768 9.79004 0 7.49414 0ZM7.49414 6.66162C6.11719 6.66162 4.99609 5.54077 4.99609 4.16357C4.99609 2.78613 6.11719 1.66528 7.49414 1.66528C8.87109 1.66528 9.99219 2.78613 9.99219 4.16357C9.99219 5.54077 8.87109 6.66162 7.49414 6.66162ZM14.9883 15.8213L14.9883 14.9885C14.9883 11.7751 12.373 9.15967 9.16016 9.15967L5.8291 9.15967C2.61426 9.15967 0 11.7751 0 14.9885L0 15.8213L1.66504 15.8213L1.66504 14.9885C1.66504 12.6929 3.5332 10.8252 5.8291 10.8252L9.16016 10.8252C11.4551 10.8252 13.3232 12.6929 13.3232 14.9885L13.3232 15.8213L14.9883 15.8213Z" fill="#03014C" fill-opacity="1.000000" fill-rule="nonzero"/>
	</g>
</svg>
